<svg viewBox="0 0 382 124" xmlns="http://www.w3.org/2000/svg"><defs><linearGradient x1="47.581%" y1="21.756%" x2="53.66%" y2="132.204%" id="a"><stop stop-color="#AE1924" offset="9.678%"/><stop stop-color="#E91223" offset="52.4%"/></linearGradient></defs><g fill="none"><path d="M168.4 41.6c0 6.6-4.1 13.1-13 13.1h-8.5v13.2h-11.2V36.5h-2.8l2.8-9h19.7c8.4 0 13 7.1 13 14.1zm-21.5 4.1h5.2c2.9 0 4.3-2.2 4.3-4.6 0-2.4-1.4-4.6-4.3-4.6h-5.2v9.2zm42.5 22.9c-10.2 0-20.3-7-20.3-20.9 0-13.9 10.1-20.9 20.2-20.9s20.3 7 20.3 20.9c0 13.9-10.1 20.9-20.2 20.9zm0-32.7c-4.1 0-8.1 4-8.1 11.8 0 7.8 4 11.8 8.1 11.8s8.1-4 8.1-11.8c0-7.8-4.1-11.8-8.1-11.8zm54.3 32h-30.6V36.5h-2.8l2.8-9h11.2v31.4h19.4zM263 27.5h11.8L261 53.7v14.2h-11.2V53.7L236 27.5h11.8l7.6 16.4zm43.8 10.4l-10.9 3.2c0-3.4-2.4-5.1-4.9-5.1-2.8 0-4.8 1.7-4.8 3.2 0 6.8 21.7 1.2 21.7 17.2 0 7.3-8.6 12.2-17.2 12.2-7.7 0-15.2-3.7-16.9-11.1l10.9-3.2c0 3.4 3 5.1 6 5.1 3.6 0 5.9-1.6 5.9-3.1 0-7.1-21.6-1.2-21.6-17.3 0-7.3 8.1-12.2 16.1-12.2 7.1 0 14.2 3.7 15.7 11.1zm33.6-1.4h-10.5v31.4h-11.2V36.5h-11l2.8-9h32.8zM361 68.6c-10.2 0-20.3-7-20.3-20.9 0-13.9 10.1-20.9 20.2-20.9s20.3 7 20.3 20.9c0 13.9-10.1 20.9-20.2 20.9zm-.1-32.7c-4.1 0-8.1 4-8.1 11.8 0 7.8 4 11.8 8.1 11.8s8.1-4 8.1-11.8c0-7.8-4-11.8-8.1-11.8z" fill="#004A79"/><path d="M89.4 25.6c-1.4-2.3-3-4.5-4.8-6.5-.7-.8-1.5-1.7-2.5-2.6-.9-.9-1.9-1.7-3.2-2.8-.6-.5-1.2-.9-1.8-1.3l-.1-.1-.2-.2c-3.7-2.7-7.5-4.7-11.4-6.2-3.5-1.3-7.2-2.2-10.9-2.6-1.8-.2-3.6-.3-5.3-.3h-2.7l-2.2.1C36 5.6 28.4 9.8 22 15.3l-.3.3c-1.1 1-2.2 2-3.2 3l-.2.2c-.9.9-1.8 1.9-2.7 2.9-.2.2-.3.4-.5.6-.9 1-1.7 2.1-2.5 3.2-.2.3-.4.5-.6.8-.7 1-1.4 2-2 3-.1.2-.2.4-.4.6-.7 1.1-1.3 2.3-2 3.5-.2.3-.4.7-.5 1-.6 1.2-1.2 2.4-1.7 3.6-.1.2-.2.4-.2.6-.5 1.1-.9 2.2-1.3 3.4-.1.3-.2.7-.3 1-.4 1.3-.8 2.6-1.1 3.9-.1.3-.1.6-.2.9-.3 1.2-.5 2.4-.7 3.6 0 .2-.1.5-.1.8-.2 1.4-.4 2.8-.5 4.2 0 .3 0 .7-.1 1-.1 1.5-.2 3-.2 4.5 0 12.5 4.1 24.2 10.5 33.9-2.3-6.2-3.6-12.9-3.6-20 0-30.9 24.3-56 54.2-56 6.2 0 12.4 1.4 18 3.5 1.8.7 3.7 1.4 5.4 2.3 2.4 1.2 4.5 2.4 6.5 3.7-.9-1.2-1.5-2.5-2.3-3.7z" fill="#E91223"/><path d="M108.1 40.1c-.2-1.1-.5-2.3-.8-3.4-.1-.3-.1-.6-.2-.8-.3-1.1-.6-2.2-1-3.3-.4-1.1-.8-2.2-1.3-3.3-.1-.2-.2-.5-.3-.7-.5-1.1-1-2.1-1.5-3.2-.6-1.1-1.2-2.1-1.8-3.1-.1-.2-.2-.4-.4-.6-1.3-2-2.8-4-4.4-5.8l-.1-.1c-.1-.1-.2-.2-.3-.4-.8-.9-1.7-1.8-2.6-2.7-.5-.5-1-.9-1.5-1.4-.7-.6-1.4-1.2-2.1-1.7-.1-.1-.3-.2-.4-.3C84.5 5.6 78.9 3 72.8 1.5L68.3.6c-.5-.1-1-.1-1.6-.2-1.4-.1-2.9-.2-4.3-.2-5.4 0-10.7.7-15.8 2.1h2.2c1.8 0 3.6.1 5.4.3h.3c3.8.4 7.5 1.3 11.1 2.6 4.1 1.5 8 3.7 11.6 6.2.1 0 .1.1.2.2.7.5 1.3 1 1.9 1.5 1.1.9 2.2 1.8 3.2 2.9.9.8 1.7 1.7 2.5 2.6 1.8 2 3.4 4.2 4.8 6.6 3.6 5.8 5.7 12.3 6.7 19.1.5 3.8.5 7.7 0 11.6-.8-1.8-2.4-4.1-5.4-6 0 0-2.5 2-.3 8.8-.6-.1-1.2-.1-1.9-.1H88c-.5 0-1.1.1-1.6.2-.3 0-.6.1-.8.1-.6.1-1.2.2-1.8.4-.3.1-.6.1-.8.2-.9.2-1.9.6-3 .9-.7.2-1.3.5-2 .8-.1.1-.2.1-.3.1-.4.2-.8.4-1.2.5-.1.1-.2.1-.3.2-.1 0-.1.1-.2.1-.5.3-1 .5-1.5.9-6.5 3.9-9.7 8.9-16.1 13.8-.1.1-.3.2-.5.3-.1 0-.1 0-.2.1-.3.1-.7.2-1.2.3-.2 0-.5.1-.8.1h-.5c-.5.1-1 .1-1.6.1h-2.2c1.7 6 6.7 13.6 11.2 16.9.1.1.6.5.6.5l1 .7c.6.4 1.2.9 1.8 1.3.6.4 1.2.7 1.8 1.1l.5.3.8.4c2.6 1.6 7.6 3.1 10.8 4 .4-1.2.8-2.4 1.3-3.6.1-.1.1-.3.2-.4l1.2-3.6v-.1c.1-.2.1-.4.2-.6.1-.4.2-.7.4-1.1.1-.3.2-.5.3-.8.1-.4.2-.7.4-1.1.1-.2.1-.4.2-.6.2-.5.3-1 .5-1.5.1-.2.1-.3.2-.5.1-.3.2-.7.3-1 .1-.2.1-.3.2-.5.1-.3.2-.7.3-1 0-.1.1-.2.1-.2.1-.4.2-.7.3-1l.1-.2c.1-.2.1-.4.2-.6 0-.1 0-.1.1-.2.1-.2.1-.3.1-.4.3-1.4-3-3.5-3.6-4.9-.6-1.3 1.5-7.9 1.5-7.9s.3 5.7.8 6.6c.7 1.1 3.1 2.4 3.9 3.5.4.5.8 1.3 1.2 2.1 0 0-4.8 6.8-1.4 19.3 0 0 2.4-7.5 5-10.4l.6.3c.1 0 .2.1.3.1.2.1.4.1.5.2.1.1.2.1.4.1.2.1.4.1.6.2.1.1.3.1.4.1.2.1.4.1.6.2.1.1.3.1.5.1.2.1.4.1.7.2.2 0 .3.1.5.1.2.1.4.1.7.1.1 0 .3.1.5.1s.4.1.7.1h.5c.3 0 .6 0 .8-.1.5-5.2 1.6-9.7 2.6-14.4.1-.4.1-.8.2-1.2l.3-1.5c.1-.5.2-1.1.3-1.7.1-.4.1-.8.2-1.2.1-1 .2-1.9.3-2.9 3.6-12.5 4.3-21.5 2-31z" fill="#004A79"/><path d="M111.6 97.2c-6.8 5.5-15.4 8.8-24.8 8.8-1.8 0-3.5-.1-5.1-.3-.8-.1-1.7-.3-2.5-.4-4-.8-7.7-2.1-11.2-4-.3-.1-.6-.3-.8-.4-.8-.5-1.6-.9-2.4-1.4-.7-.5-1.3-1-2-1.5-.3-.2-.6-.5-.9-.7l-.6-.6c-5.7-4.9-10-11.4-12-18.8-.3-.9-.5-1.8-.7-2.8-.5-2.4-.8-4.9-.8-7.5 0-21.2 17.5-38.4 39.1-38.4 1.7 0 3 .1 4.7.3-1.9-1.3-4.1-2.6-6.5-3.8-1.7-.8-3.6-1.6-5.4-2.3-5.6-2.1-11.8-3.5-18-3.5-29.9 0-54.2 25.1-54.2 56 0 7 1.3 13.8 3.6 20 11 16.7 29.9 27.7 51.4 27.7h1.2c.8 0 1.7 0 2.5-.1.7 0 1.4-.1 2.1-.1.4 0 .8-.1 1.2-.1 2.7-.3 5.4-.8 8-1.4.2 0 .3-.1.5-.1.9-.2 1.8-.5 2.7-.7.1 0 .2-.1.3-.1 11.2-3.4 21-9.8 28.5-18.3 2.6-2.9 4.9-6.1 6.9-9.5-1.7 1.4-3.2 2.7-4.8 4z" fill="url(#a)"/><path d="M135.7 87.4v-1h1s.5 1.1 2.1 1.1c1.1 0 1.5-.4 1.5-1 0-.8-.8-.9-1.7-1.1l-.9-.2c-1-.2-1.9-.8-1.9-2.2 0-1.2 1-2.4 2.8-2.4 1.7 0 2.4.7 2.8 1.3v1h-1s-.4-.9-1.7-.9c-1 0-1.4.4-1.4 1s.6.9 1.3 1l.8.2c1.1.2 2.3.7 2.3 2.2 0 1.4-1 2.5-3 2.5-2.3-.1-3-1.5-3-1.5zm8.9-1.4v-3.9h-1.3v-1.3h1.4l.1-2h1.4v2h3.1v1.3h-3.1v3.8c0 1 .3 1.6 1.3 1.6s1.1-.8 1.1-.8h1v1c-.2.4-.8 1.1-2.1 1.1-2 0-2.9-1-2.9-2.8zm6.9-5.3h1.4l.1 1.1c.4-.7 1.2-1.2 2.3-1.2 1.2 0 1.8.6 2 1.2v1h-1s-.2-.9-1.4-.9c-1.1 0-1.7.9-1.7 2.2v4.6h-1.6c-.1 0-.1-8-.1-8zm6.9 4c0-2.3 1.5-4.1 4-4.1s4 1.8 4 4.1-1.5 4.2-4 4.2-4-1.9-4-4.2zm6.5 0c0-1.5-.8-2.8-2.4-2.8-1.6 0-2.4 1.2-2.4 2.8 0 1.6.8 2.8 2.4 2.8 1.6 0 2.4-1.3 2.4-2.8zm3.9-4h1.4l.1 1.1c.4-.5 1.1-1.2 2.4-1.2 2.2 0 3 1.5 3 3.3v4.8h-1.6V84c0-1.2-.5-2.1-1.8-2.1-1.5 0-2 1.1-2 2.1v4.7h-1.6v-8h.1zm9.6 10.4v-1h1s.5 1.3 2.4 1.3 2.7-1.2 2.7-3.2v-.8c-.6.9-1.5 1.4-2.8 1.4-2.3 0-3.7-1.9-3.7-4.2 0-2.3 1.4-4.1 3.7-4.1 1.2 0 2.2.5 2.8 1.4l.2-1.2h1.4v7.5c0 2.8-1.6 4.6-4.3 4.6-2.7 0-3.4-1.7-3.4-1.7zm6.1-6.4c0-1.5-.9-2.8-2.4-2.8-1.6 0-2.4 1.2-2.4 2.8 0 1.6.8 2.8 2.4 2.8 1.5 0 2.4-1.3 2.4-2.8zm8.9-7.5h1.8V79h-1.8v-1.8zm.1 3.5h1.6v7.9h-1.6v-7.9zm4.4 0h1.4l.1 1.1c.4-.5 1.1-1.2 2.4-1.2 2.2 0 3 1.5 3 3.3v4.8h-1.6V84c0-1.2-.5-2.1-1.8-2.1-1.5 0-2 1.1-2 2.1v4.7h-1.6v-8h.1zm14.2-3.9h1.6v5c.4-.5 1.1-1.2 2.4-1.2 2.2 0 3 1.5 3 3.3v4.8h-1.6V84c0-1.2-.5-2.1-1.8-2.1-1.5 0-2 1.1-2 2.1v4.7h-1.6V76.8zm9.5 15.8v-1.1l2.4-4.1-3-5.6v-1.1h1.1l2.8 5.2 2.8-5.2h1v1l-5.9 10.9h-1.2zm8.8-1.5v-1h1s.5 1.3 2.4 1.3 2.7-1.2 2.7-3.2v-.8c-.6.9-1.5 1.4-2.8 1.4-2.3 0-3.7-1.9-3.7-4.2 0-2.3 1.4-4.1 3.7-4.1 1.2 0 2.2.5 2.8 1.4l.2-1.2h1.4v7.5c0 2.8-1.6 4.6-4.3 4.6-2.7 0-3.4-1.7-3.4-1.7zm6.1-6.4c0-1.5-.9-2.8-2.5-2.8s-2.5 1.2-2.5 2.8c0 1.6.8 2.8 2.5 2.8 1.5 0 2.5-1.3 2.5-2.8zm4.3-7.5h1.8V79h-1.8v-1.8zm.1 3.5h1.6v7.9h-1.6v-7.9zm3.9 4c0-2.3 1.4-4.1 3.9-4.1s3.6 1.5 3.6 3.5c0 .5-.1.9-.1.9h-5.9c.1 1.6.9 2.5 2.5 2.5 1.8 0 2.3-1 2.3-1h1v1s-.8 1.3-3.3 1.3c-2.6 0-4-1.7-4-4.1zm6-1c0-1-.7-1.8-2.1-1.8-1.4 0-2 .8-2.3 1.8h4.4zm4-3h1.4l.1 1.1c.4-.5 1.1-1.2 2.4-1.2 2.2 0 3 1.5 3 3.3v4.8h-1.6V84c0-1.2-.5-2.1-1.8-2.1-1.5 0-2 1.1-2 2.1v4.7h-1.6l.1-8zm9.6-3.5h1.8V79h-1.8v-1.8zm.1 3.5h1.6v7.9h-1.6v-7.9zm3.9 4c0-2.3 1.5-4.1 4-4.1s3 1.5 3 1.5v1h-1s-.3-1.1-2-1.1-2.5 1.2-2.5 2.8c0 1.6.8 2.8 2.5 2.8 1.8 0 2-1.1 2-1.1h1v1s-.6 1.5-3 1.5c-2.6-.1-4-2-4-4.3zm13.5 0c0-2.3 1.5-4.1 4-4.1s3 1.5 3 1.5v1h-1s-.3-1.1-2-1.1-2.5 1.2-2.5 2.8c0 1.6.8 2.8 2.5 2.8 1.8 0 2-1.1 2-1.1h1v1s-.6 1.5-3 1.5c-2.7-.1-4-2-4-4.3zm8.9 0c0-2.3 1.5-4.1 4-4.1s4 1.8 4 4.1-1.5 4.2-4 4.2-4-1.9-4-4.2zm6.5 0c0-1.5-.8-2.8-2.5-2.8s-2.5 1.2-2.5 2.8c0 1.6.8 2.8 2.5 2.8s2.5-1.3 2.5-2.8zm3.9-4h1.4l.1 1.1c.4-.5 1.1-1.2 2.4-1.2 2.2 0 3 1.5 3 3.3v4.8h-1.6V84c0-1.2-.5-2.1-1.8-2.1-1.5 0-2 1.1-2 2.1v4.7h-1.6l.1-8zm9.3 6.7v-1h1s.5 1.1 2.1 1.1c1.1 0 1.5-.4 1.5-1 0-.8-.8-.9-1.7-1.1l-.9-.2c-1-.2-1.9-.8-1.9-2.2 0-1.2 1-2.4 2.8-2.4 1.7 0 2.5.7 2.8 1.3v1h-1s-.4-.9-1.7-.9c-1 0-1.4.4-1.4 1s.6.9 1.3 1l.8.2c1.1.2 2.3.7 2.3 2.2 0 1.4-1 2.5-3 2.5-2.3-.1-3-1.5-3-1.5zm8.9-1.4v-3.9h-1.3v-1.3h1.4l.1-2h1.4v2h3.1v1.3H321v3.8c0 1 .3 1.6 1.3 1.6s1.1-.8 1.1-.8h1v1c-.2.4-.8 1.1-2.1 1.1-2 0-2.9-1-2.9-2.8zm6.9-5.3h1.4l.1 1.1c.4-.7 1.2-1.2 2.3-1.2 1.2 0 1.8.6 2 1.2v1h-1s-.2-.9-1.4-.9c-1.1 0-1.7.9-1.7 2.2v4.6h-1.6c-.1 0-.1-8-.1-8zm7.5 4.8v-4.8h1.6v4.7c0 1.2.5 2.1 1.8 2.1 1.5 0 2-1.1 2-2.1v-4.7h1.6v7.9h-1.4l-.1-1.1c-.4.5-1.2 1.2-2.4 1.2-2.3.1-3.1-1.4-3.1-3.2zm9.3-.8c0-2.3 1.5-4.1 4-4.1s3 1.5 3 1.5v1h-1s-.3-1.1-2-1.1-2.5 1.2-2.5 2.8c0 1.6.8 2.8 2.5 2.8 1.8 0 2-1.1 2-1.1h1v1s-.6 1.5-3 1.5c-2.7-.1-4-2-4-4.3zM353 86v-3.9h-1.3v-1.3h1.4l.1-2h1.4v2h3.1v1.3h-3.1v3.8c0 1 .3 1.6 1.3 1.6s1.1-.8 1.1-.8h1v1c-.2.4-.8 1.1-2.1 1.1-1.9 0-2.9-1-2.9-2.8zm6.8-8.8h1.8V79h-1.8v-1.8zm.1 3.5h1.6v7.9h-1.6v-7.9zm3.9 4c0-2.3 1.5-4.1 4-4.1s4 1.8 4 4.1-1.5 4.2-4 4.2-4-1.9-4-4.2zm6.5 0c0-1.5-.8-2.8-2.5-2.8s-2.5 1.2-2.5 2.8c0 1.6.8 2.8 2.5 2.8s2.5-1.3 2.5-2.8zm3.9-4h1.4l.1 1.1c.4-.5 1.1-1.2 2.4-1.2 2.2 0 3 1.5 3 3.3v4.8h-1.6V84c0-1.2-.5-2.1-1.8-2.1-1.5 0-2 1.1-2 2.1v4.7h-1.6l.1-8z" fill="#284A75"/></g></svg>
