<?xml version="1.0" encoding="UTF-8"?>
<svg version="1.1" xmlns="http://www.w3.org/2000/svg" width="377" height="299">
<path d="M0 0 C3.27514747 0.24260352 5.45180218 1.06335767 8.41650391 2.38525391 C19.79753038 7.41038427 31.63377181 11.4728582 43.37744141 15.5546875 C46.52631871 16.65075235 49.67002136 17.76069406 52.8125 18.875 C53.84246094 19.23851563 54.87242187 19.60203125 55.93359375 19.9765625 C58.64073888 20.97829838 61.3134542 22.02293524 63.98876953 23.10449219 C68.96324618 25.09910181 73.96996955 26.99168417 78.99609375 28.8515625 C80.77284482 29.51286405 82.54953585 30.17432693 84.32617188 30.8359375 C87.08620082 31.86239659 89.84665899 32.88764816 92.6081543 33.91015625 C95.30126451 34.90800848 97.99255059 35.91065152 100.68359375 36.9140625 C101.51169052 37.2192984 102.33978729 37.5245343 103.19297791 37.83901978 C103.96130447 38.12626923 104.72963104 38.41351868 105.52124023 38.70947266 C106.19501205 38.95944 106.86878387 39.20940735 107.56297302 39.46694946 C109.375 40.25 109.375 40.25 112.375 42.25 C112.74414349 45.22913551 112.74414349 45.22913551 112.73576355 49.13418579 C112.73832682 49.8505163 112.7408901 50.56684682 112.74353105 51.30488431 C112.74849237 53.71731621 112.73193803 56.1291292 112.71557617 58.54150391 C112.7147304 60.26591477 112.71520406 61.99032671 112.71690369 63.71473694 C112.71776703 68.40671156 112.70008656 73.09845769 112.67918181 77.79037905 C112.66047137 82.68978001 112.65866903 87.58918577 112.65510559 92.48861694 C112.64576852 101.77112608 112.62113232 111.05352964 112.59105712 120.33599222 C112.55756473 130.90172355 112.54104011 141.46745984 112.52597082 152.03323102 C112.49458417 173.7722146 112.44118959 195.51109695 112.375 217.25 C122.275 217.25 132.175 217.25 142.375 217.25 C142.375 221.54 142.375 225.83 142.375 230.25 C141.375 231.25 141.375 231.25 139.57726187 231.3741985 C138.38854737 231.37362892 138.38854737 231.37362892 137.17581844 231.37304783 C136.26466115 231.37503888 135.35350386 231.37702993 134.41473573 231.37908131 C133.40211107 231.37616847 132.38948641 231.37325563 131.34617615 231.37025452 C130.27951456 231.37110894 129.21285297 231.37196337 128.1138683 231.37284368 C124.51005896 231.37450165 120.90629534 231.36897195 117.30249023 231.36352539 C114.73094687 231.36324356 112.15940342 231.36340117 109.58786011 231.3639679 C104.03627988 231.36449331 98.48471136 231.36134468 92.93313408 231.35573006 C84.90639695 231.34761743 76.8796655 231.34500008 68.85292471 231.34374207 C55.83138995 231.34155117 42.80986144 231.33489007 29.78833008 231.32543945 C17.13598665 231.3162663 4.48364491 231.309185 -8.16870117 231.30493164 C-8.94804429 231.30466892 -9.72738742 231.30440619 -10.530347 231.30413551 C-14.43991895 231.30283051 -18.34949091 231.30156679 -22.25906289 231.30032361 C-54.71437981 231.28994983 -87.16968907 231.2723305 -119.625 231.25 C-119.81956705 229.29235617 -120.00544247 227.33384679 -120.1875 225.375 C-120.29191406 224.28445312 -120.39632812 223.19390625 -120.50390625 222.0703125 C-120.625 219.25 -120.625 219.25 -119.625 217.25 C-111.045 217.25 -102.465 217.25 -93.625 217.25 C-93.625 192.83 -93.625 168.41 -93.625 143.25 C-87.26840522 140.70736209 -80.95719583 138.24399004 -74.5 136 C-73.35144531 135.5978125 -73.35144531 135.5978125 -72.1796875 135.1875 C-70.32881414 134.53969432 -68.47700935 133.89455082 -66.625 133.25 C-66.62357498 132.41728073 -66.62214996 131.58456146 -66.62068176 130.72660828 C-66.60286113 122.883557 -66.56127627 115.04107088 -66.49290943 107.19829082 C-66.45860034 103.16605359 -66.43352349 99.13419677 -66.42944336 95.10180664 C-66.4251686 91.21110432 -66.39677635 87.32126072 -66.35156822 83.43082619 C-66.33856651 81.94570732 -66.33429503 80.46048581 -66.33884621 78.975317 C-66.34373406 76.8962542 -66.3177502 74.819719 -66.28442383 72.7409668 C-66.27776199 71.55738083 -66.27110016 70.37379486 -66.26423645 69.15434265 C-65.625 66.25 -65.625 66.25 -63.29924011 64.44273376 C-62.41674088 64.04913162 -61.53424164 63.65552948 -60.625 63.25 C-58.91860352 62.47052002 -58.91860352 62.47052002 -57.17773438 61.67529297 C-55.85965695 61.11054638 -54.53989534 60.54971939 -53.21875 59.9921875 C-52.50488632 59.68741989 -51.79102264 59.38265228 -51.05552673 59.06864929 C-48.7468273 58.08392421 -46.43599128 57.10433288 -44.125 56.125 C-42.54031098 55.45075662 -40.95575737 54.77619491 -39.37133789 54.10131836 C-37.00520424 53.09362787 -34.63892629 52.08628913 -32.27198792 51.08049011 C-27.74594736 49.15679788 -23.22665858 47.21862595 -18.71484375 45.26171875 C-17.7403125 44.83971191 -16.76578125 44.41770508 -15.76171875 43.98291016 C-14.0041091 43.22079179 -12.24754113 42.45626513 -10.4921875 41.68896484 C-4.84782833 39.25 -4.84782833 39.25 -2.625 39.25 C-2.66052979 38.104104 -2.69605957 36.95820801 -2.73266602 35.77758789 C-2.86265837 31.54172925 -2.98595036 27.30569789 -3.10717773 23.06958008 C-3.16067534 21.2332625 -3.21601046 19.39699753 -3.27319336 17.56079102 C-3.35488864 14.92736153 -3.43005738 12.29381595 -3.50390625 9.66015625 C-3.53094131 8.83411392 -3.55797638 8.00807159 -3.58583069 7.15699768 C-3.63783011 5.1886419 -3.63687837 3.21900669 -3.625 1.25 C-2.625 0.25 -2.625 0.25 0 0 Z M11.375 19.25 C11.375 47.96 11.375 76.67 11.375 106.25 C35.46031877 97.45991694 35.46031877 97.45991694 59.375 88.25 C59.38530746 89.5416507 59.39561493 90.83330139 59.40623474 92.16409302 C59.5046605 104.43054494 59.60744923 116.69695387 59.71433926 128.96333504 C59.76913599 135.26720797 59.8224787 141.57108574 59.87231445 147.875 C59.92060614 153.97644299 59.97295737 160.0778397 60.02794075 166.17922592 C60.04807543 168.48879698 60.06682969 170.79838056 60.08407402 173.10797501 C60.19527773 187.84898608 60.62304413 202.52665056 61.375 217.25 C73.915 217.25 86.455 217.25 99.375 217.25 C99.375 162.8 99.375 108.35 99.375 52.25 C90.07634987 48.01080938 90.07634987 48.01080938 80.625 44.625 C75.73362771 43.07433091 71.07834402 41.29950187 66.375 39.25 C56.84758018 35.52885286 47.21369763 32.13611529 37.54736328 28.79711914 C31.92692086 26.83897666 26.42435008 24.70606592 20.98046875 22.29296875 C17.86236424 21.04479198 14.60442114 20.17269175 11.375 19.25 Z M-9.9375 57.4375 C-14.30603619 59.2903439 -18.68919018 61.06449928 -23.125 62.75 C-32.91508644 66.49292433 -42.23075343 70.55287672 -51.625 75.25 C-51.625 92.74 -51.625 110.23 -51.625 128.25 C-48.31689357 127.58837871 -45.60115637 126.98074436 -42.5 125.8671875 C-41.72068115 125.59028076 -40.9413623 125.31337402 -40.13842773 125.02807617 C-39.30899658 124.73006104 -38.47956543 124.4320459 -37.625 124.125 C-29.23780144 121.14123556 -20.81432823 118.29249557 -12.34179688 115.56005859 C-11.50583984 115.28629395 -10.66988281 115.0125293 -9.80859375 114.73046875 C-8.70342407 114.37311646 -8.70342407 114.37311646 -7.57592773 114.00854492 C-5.35519581 113.22575103 -5.35519581 113.22575103 -2.625 111.25 C-2.18616834 108.78797982 -2.18616834 108.78797982 -2.28442383 105.88232422 C-2.28465042 104.76131317 -2.28487701 103.64030212 -2.28511047 102.48532104 C-2.30059433 101.27071198 -2.31607819 100.05610291 -2.33203125 98.8046875 C-2.33839851 96.94446457 -2.33839851 96.94446457 -2.34489441 95.04666138 C-2.35886784 91.74864537 -2.38582639 88.4510665 -2.41900635 85.15319824 C-2.44968762 81.78838458 -2.46339554 78.42350696 -2.47851562 75.05859375 C-2.5116527 68.45555729 -2.56190303 61.85281442 -2.625 55.25 C-5.41914194 55.25 -7.37054659 56.33252006 -9.9375 57.4375 Z M39.42578125 110.26171875 C38.18376953 110.69033203 36.94175781 111.11894531 35.66210938 111.56054688 C35.00750732 111.78734131 34.35290527 112.01413574 33.6784668 112.24780273 C31.74130707 112.91886052 29.80335567 113.5875846 27.86523438 114.25585938 C10.50025957 120.22762252 10.50025957 120.22762252 -6.5625 127 C-9.8847171 128.35600698 -13.23921016 129.56200357 -16.625 130.75 C-20.91559448 132.25662096 -25.13025601 133.84010926 -29.3125 135.625 C-35.38562631 138.20913562 -41.56146967 140.46857515 -47.76074219 142.72729492 C-51.88986215 144.2341674 -55.99531335 145.76857365 -60.0625 147.4375 C-64.71392781 149.34409232 -69.46727656 150.88746677 -74.25390625 152.41796875 C-76.55126568 153.03190289 -76.55126568 153.03190289 -77.625 154.25 C-77.7190067 156.21369153 -77.74243381 158.18079199 -77.73852539 160.14672852 C-77.73844986 161.40796036 -77.73837433 162.6691922 -77.73829651 163.96864319 C-77.7331891 165.35539794 -77.72797309 166.74215229 -77.72265625 168.12890625 C-77.72079201 169.53995209 -77.71936814 170.95099857 -77.71836853 172.36204529 C-77.71454379 176.08240535 -77.7047139 179.8027266 -77.69366455 183.52307129 C-77.68344948 187.31680781 -77.67887071 191.11055058 -77.67382812 194.90429688 C-77.66309158 202.35288231 -77.6460157 209.80143572 -77.625 217.25 C-61.60506463 217.27332916 -45.58513474 217.29097926 -29.5651865 217.30181217 C-22.1273549 217.30697509 -14.68953383 217.31401771 -7.25170898 217.32543945 C-0.77118658 217.33538641 5.70932819 217.34185346 12.18985802 217.34408849 C15.62330542 217.34539558 19.056731 217.3484813 22.49017143 217.35573006 C26.31693821 217.36374416 30.14368335 217.36399113 33.97045898 217.36352539 C35.69027733 217.3689183 35.69027733 217.3689183 37.44483948 217.37442017 C38.48115509 217.3730455 39.5174707 217.37167084 40.58518982 217.37025452 C41.49131232 217.37117631 42.39743483 217.3720981 43.33101559 217.37304783 C45.36895435 217.47715834 45.36895435 217.47715834 46.375 216.25 C46.4704693 214.84588683 46.49688529 213.43700191 46.49525452 212.02964783 C46.49662918 211.11954453 46.49800385 210.20944122 46.49942017 209.27175903 C46.49402725 207.76233231 46.49402725 207.76233231 46.48852539 206.22241211 C46.48867142 205.16888046 46.48881744 204.11534882 46.4889679 203.02989197 C46.48826826 199.529022 46.48047348 196.02820448 46.47265625 192.52734375 C46.47079225 190.10738657 46.46936826 187.68742901 46.46836853 185.26747131 C46.46454192 178.88384976 46.45471041 172.50025079 46.44366455 166.11663818 C46.43345351 159.60836086 46.42887157 153.1000799 46.42382812 146.59179688 C46.41308827 133.81118825 46.39620112 121.03059533 46.375 108.25 C44.07457702 108.25 41.54901218 109.52822787 39.42578125 110.26171875 Z " fill="#D4A242" transform="translate(176.625,19.75)"/>
<path d="M0 0 C0.80961323 0.00223072 1.61922647 0.00446144 2.45337343 0.00675976 C3.30698473 0.00519977 4.16059604 0.00363978 5.04007435 0.00203252 C7.92293436 -0.00198121 10.80574244 0.00121359 13.68860292 0.00434887 C15.74621534 0.002995 17.80382752 0.00121514 19.86143923 -0.00096118 C25.46664631 -0.00553715 31.07183507 -0.00374529 36.67704248 -0.0005821 C42.52891895 0.00194067 48.38079379 -0.0003958 54.23267031 -0.00196826 C64.06189682 -0.00379021 73.89111583 -0.00138301 83.72034121 0.00337231 C95.1021103 0.00881498 106.48386149 0.00705234 117.86563015 0.00154591 C127.618453 -0.00298453 137.37127045 -0.00363612 147.12409401 -0.00101542 C152.9574947 0.00054774 158.79088697 0.00074006 164.62428713 -0.00255191 C170.1070946 -0.00542962 175.58987886 -0.0034568 181.07268381 0.00234234 C183.09118597 0.00367049 185.10969007 0.00327492 187.12819147 0.00107968 C189.87129654 -0.00162971 192.61432599 0.0017467 195.35742617 0.00675976 C196.1670394 0.00452904 196.97665263 0.00229832 197.8107996 0 C203.29124997 0.01959357 203.29124997 0.01959357 204.4053998 1.13374341 C204.50413796 3.13173912 204.53511779 5.13331499 204.5303998 7.13374341 C204.53297792 8.22686841 204.53555605 9.31999341 204.5382123 10.44624341 C204.4053998 13.13374341 204.4053998 13.13374341 203.4053998 14.13374341 C200.69947735 14.23159461 198.01908804 14.26368021 195.31273317 14.25399792 C194.45433275 14.25485235 193.59593233 14.25570677 192.71151978 14.25658709 C189.8125027 14.25824453 186.91354248 14.25271622 184.01453066 14.2472688 C181.94544396 14.24698696 179.87635717 14.2471446 177.80727053 14.2477113 C172.17113717 14.2479994 166.53502489 14.24210073 160.89889646 14.23513734 C155.01585718 14.2289058 149.13281748 14.22830017 143.24977541 14.22711194 C132.10085752 14.22399803 120.95194938 14.21578385 109.8030358 14.20576245 C97.11401712 14.19460314 84.42499798 14.18909132 71.73597562 14.18406701 C45.62577827 14.17360128 19.51558958 14.1560007 -6.5946002 14.13374341 C-6.62145958 11.98797704 -6.64093108 9.84211695 -6.6571002 7.69624341 C-6.66870176 6.50128247 -6.68030333 5.30632153 -6.69225645 4.07514966 C-6.52440712 -0.98047219 -4.52642375 0.01618276 0 0 Z " fill="#D5A141" transform="translate(88.59460020065308,260.8662565946579)"/>
<path d="M0 0 C1.20960661 0.00436926 1.20960661 0.00436926 2.44364971 0.00882679 C3.29388303 0.00797237 4.14411634 0.00711794 5.0201143 0.00623763 C7.89149251 0.00458021 10.76281331 0.01010845 13.63418621 0.01555592 C15.68356872 0.01583776 17.73295134 0.01568012 19.78233379 0.01511341 C25.36474994 0.01482532 30.9471448 0.02072395 36.52955598 0.02768737 C42.35654081 0.03391895 48.18352607 0.03452455 54.01051372 0.03571278 C65.05318376 0.03882667 76.09584394 0.04704084 87.13850963 0.05706227 C99.70661161 0.0682216 112.27471405 0.0737334 124.84281975 0.0787577 C150.70418891 0.08922341 176.56554931 0.10682397 202.42691082 0.12908131 C202.42691082 0.45908131 202.42691082 0.78908131 202.42691082 1.12908131 C100.45691082 1.62408131 100.45691082 1.62408131 -3.57308918 2.12908131 C-3.90308918 5.75908131 -4.23308918 9.38908131 -4.57308918 13.12908131 C64.06691082 13.12908131 132.70691082 13.12908131 203.42691082 13.12908131 C203.42691082 13.45908131 203.42691082 13.78908131 203.42691082 14.12908131 C134.12691082 14.12908131 64.82691082 14.12908131 -6.57308918 14.12908131 C-6.57308918 0.01801331 -6.57308918 0.01801331 0 0 Z " fill="#C6A15F" transform="translate(88.57308918237686,260.8709186911583)"/>
<path d="M0 0 C4.875 0.875 4.875 0.875 6 2 C6.10129389 4.12166249 6.13077881 6.24675725 6.13371277 8.37083435 C6.13597833 9.04406378 6.13824388 9.71729322 6.14057809 10.41092354 C6.14694538 12.68338994 6.14608699 14.95579711 6.14526367 17.22827148 C6.14825346 18.85076984 6.15165557 20.47326747 6.15544128 22.09576416 C6.16430375 26.51512356 6.16662033 30.93446363 6.16725707 35.35383105 C6.16820429 39.03695128 6.17188041 42.72006695 6.17542917 46.40318543 C6.18358224 55.08918649 6.18601262 63.77517719 6.18530273 72.46118164 C6.18470169 81.43560803 6.19525686 90.40997435 6.2110464 99.38438553 C6.22410076 107.07694516 6.22948752 114.76948511 6.22884732 122.46205574 C6.22859172 127.06198456 6.23147721 131.66186004 6.24202538 136.26177788 C6.25167108 140.58649891 6.25180995 144.91111523 6.24450874 149.23583984 C6.24345849 150.82659622 6.2458517 152.41735899 6.2518692 154.00810432 C6.25953032 156.17292204 6.25498391 158.33737279 6.24723816 160.50218201 C6.24778293 161.71580634 6.24832769 162.92943068 6.24888897 164.1798315 C6 167 6 167 4 169 C1.02168818 169.17558352 -1.86240727 169.23125049 -4.83984375 169.1953125 C-5.71774063 169.1924826 -6.59563751 169.18965271 -7.50013733 169.18673706 C-10.31272888 169.17552337 -13.12500454 169.15043508 -15.9375 169.125 C-17.8300735 169.11497012 -19.72265201 169.10584428 -21.61523438 169.09765625 C-25.08331664 169.0812931 -28.55128079 169.05992863 -32.01928711 169.03173828 C-34.3461415 169.01318624 -36.67307165 169 -39 169 C-39.33 168.01 -39.66 167.02 -40 166 C-39.34 165.67 -38.68 165.34 -38 165 C-37.30772968 162.19019327 -37.30772968 162.19019327 -36.875 158.9375 C-36.70742187 157.83277344 -36.53984375 156.72804687 -36.3671875 155.58984375 C-36.24601563 154.73519531 -36.12484375 153.88054687 -36 153 C-35.67 153 -35.34 153 -35 153 C-34.34 157.29 -33.68 161.58 -33 166 C-20.79 166.33 -8.58 166.66 4 167 C3.93720436 145.52111512 3.86209837 124.04239007 3.76428509 102.56363869 C3.71926985 92.59126464 3.67986853 82.61892677 3.65356445 72.64648438 C3.63063062 63.95712638 3.59728468 55.26788231 3.55129844 46.57861459 C3.52730368 41.97532149 3.50861602 37.37214166 3.50238609 32.76878738 C3.49636335 28.43987706 3.47646637 24.11125676 3.44572449 19.78245354 C3.4368989 18.19010744 3.43323096 16.59772351 3.43499184 15.00535393 C3.43663239 12.83807843 3.42005206 10.67170007 3.39872742 8.50454712 C3.39411845 7.28962397 3.38950949 6.07470081 3.38476086 4.82296181 C3.19430423 3.42559571 3.19430423 3.42559571 3 2 C2.01 1.34 1.02 0.68 0 0 Z " fill="#CBA25C" transform="translate(272,70)"/>
<path d="M0 0 C3 2 3 2 3.37752342 3.81227684 C3.3786545 4.55004671 3.37978558 5.28781658 3.38095093 6.04794312 C3.3894104 6.89474136 3.39786987 7.74153961 3.40658569 8.61399841 C3.39747665 10.0104232 3.39747665 10.0104232 3.38818359 11.43505859 C3.39344055 12.4140361 3.39869751 13.39301361 3.40411377 14.4016571 C3.41736024 17.65074434 3.40855779 20.89934493 3.3984375 24.1484375 C3.40045722 26.40044245 3.4033678 28.65244676 3.40713501 30.90444946 C3.41156494 35.63069875 3.40510694 40.35677823 3.39111328 45.08300781 C3.37404075 51.14507797 3.38384633 57.20674912 3.40183067 63.26880455 C3.41266711 67.92189544 3.40922243 72.57489165 3.4014473 77.22798538 C3.39944389 79.46313143 3.40190946 81.69828603 3.40888596 83.93342209 C3.41649578 87.05789727 3.40490144 90.18172541 3.38818359 93.30615234 C3.39425629 94.23305374 3.40032898 95.15995514 3.40658569 96.11494446 C3.39812622 96.96738235 3.38966675 97.81982025 3.38095093 98.6980896 C3.37981985 99.43661352 3.37868877 100.17513744 3.37752342 100.93604088 C3 103 3 103 0 107 C0 71.69 0 36.38 0 0 Z " fill="#CFAA64" transform="translate(223,129)"/>
<path d="M0 0 C-9.74116336 4.52268299 -19.83208138 8.10414744 -29.90625 11.80078125 C-31.56251269 12.40881961 -33.21876273 13.01689241 -34.875 13.625 C-35.68767334 13.92293457 -36.50034668 14.22086914 -37.33764648 14.52783203 C-41.39739636 16.02131299 -45.43357233 17.5486532 -49.4375 19.1875 C-54.87508393 21.34763608 -60.44931029 23.1497701 -66 25 C-66.33 45.79 -66.66 66.58 -67 88 C-67.33 88 -67.66 88 -68 88 C-68.1771006 79.72472473 -68.3430462 71.44933289 -68.49477577 63.17355728 C-68.56558084 59.33073888 -68.6402186 55.48807483 -68.72363281 51.64550781 C-68.80399867 47.93685635 -68.87427399 44.22813806 -68.93757248 40.51915741 C-68.96348552 39.10451978 -68.99302695 37.68994379 -69.02626419 36.27545929 C-69.07221354 34.29353971 -69.10404088 32.31130798 -69.13525391 30.32910156 C-69.15746002 29.20103088 -69.17966614 28.07296021 -69.20254517 26.91070557 C-68.99947811 23.99250004 -68.6960107 22.36867489 -67 20 C-64.50059089 19.19875402 -62.31295485 18.66814043 -59.75 18.25 C-59.09386719 18.12496094 -58.43773438 17.99992187 -57.76171875 17.87109375 C-53.80160679 17.15465202 -50.01880201 16.87519248 -46 17 C-46 16.34 -46 15.68 -46 15 C-42.62902617 13.50178941 -40.79557881 13 -37 13 C-37 12.34 -37 11.68 -37 11 C-35.02 10.67 -33.04 10.34 -31 10 C-31 9.34 -31 8.68 -31 8 C-27.59648662 5.96780512 -24.6767073 5.63108961 -20.75 5.375 C-19.67234375 5.30023438 -18.5946875 5.22546875 -17.484375 5.1484375 C-16.66453125 5.09945312 -15.8446875 5.05046875 -15 5 C-15 3.68 -15 2.36 -15 1 C-12.77888677 -0.11055662 -11.0853776 -0.33890958 -8.625 -0.625 C-7.85414063 -0.72039062 -7.08328125 -0.81578125 -6.2890625 -0.9140625 C-3.97179747 -1.0010588 -2.20658162 -0.67507292 0 0 Z " fill="#C9A768" transform="translate(166,149)"/>
<path d="M0 0 C2.475 0.99 2.475 0.99 5 2 C5 59.75 5 117.5 5 177 C4.67 177 4.34 177 4 177 C3.67 119.58 3.34 62.16 3 3 C2.01 2.67 1.02 2.34 0 2 C0 1.34 0 0.68 0 0 Z " fill="#C8A15D" transform="translate(284,60)"/>
<path d="M0 0 C3.23707466 0.23978331 5.32452456 1.02287954 8.24804688 2.32763672 C12.53888223 4.18837776 16.93856382 5.78419398 21.3125 7.4375 C22.7675293 7.98954102 22.7675293 7.98954102 24.25195312 8.55273438 C26.62579952 9.45315887 29.00015538 10.35221235 31.375 11.25 C31.375 11.58 31.375 11.91 31.375 12.25 C27.745 12.58 24.115 12.91 20.375 13.25 C20.375 12.59 20.375 11.93 20.375 11.25 C19.715 11.25 19.055 11.25 18.375 11.25 C18.045 11.91 17.715 12.57 17.375 13.25 C16.385 12.59 15.395 11.93 14.375 11.25 C14.375 10.26 14.375 9.27 14.375 8.25 C13.385 7.92 12.395 7.59 11.375 7.25 C11.375 6.59 11.375 5.93 11.375 5.25 C9.5608073 5.53094582 7.74864999 5.82506433 5.9375 6.125 C4.92816406 6.28742187 3.91882813 6.44984375 2.87890625 6.6171875 C2.05261719 6.82601563 1.22632813 7.03484375 0.375 7.25 C-1.04767862 10.09535725 -0.84471869 12.61218552 -0.94140625 15.7890625 C-0.98330078 17.09101562 -1.02519531 18.39296875 -1.06835938 19.734375 C-1.10817299 21.11458045 -1.14788522 22.49478883 -1.1875 23.875 C-1.23069407 25.26303415 -1.27430865 26.65105528 -1.31835938 28.0390625 C-1.42472 31.44260256 -1.52674714 34.84621778 -1.625 38.25 C-1.955 38.25 -2.285 38.25 -2.625 38.25 C-2.79223026 32.99912156 -2.95282815 27.74809906 -3.10717773 22.49682617 C-3.16067402 20.70900968 -3.21600904 18.92124725 -3.27319336 17.13354492 C-3.35489235 14.56961734 -3.43005945 12.00557047 -3.50390625 9.44140625 C-3.53094131 8.6372377 -3.55797638 7.83306915 -3.58583069 7.00453186 C-3.63785627 5.08701578 -3.63687441 3.16818497 -3.625 1.25 C-2.625 0.25 -2.625 0.25 0 0 Z " fill="#CDA255" transform="translate(176.625,19.75)"/>
<path d="M0 0 C5.875 0.875 5.875 0.875 7 2 C7.11455672 3.7327342 7.15962254 5.47011301 7.17700195 7.20654297 C7.18983719 8.31794647 7.20267242 9.42934998 7.21589661 10.57443237 C7.22328354 11.78479156 7.23067047 12.99515076 7.23828125 14.2421875 C7.246353 15.47663605 7.25442474 16.71108459 7.26274109 17.98294067 C7.27660131 20.60075466 7.28731474 23.21858687 7.29516602 25.83642578 C7.30403614 28.52545767 7.32492808 31.21397448 7.35668945 33.90283203 C7.39915089 37.76611071 7.41550628 41.62870509 7.42578125 45.4921875 C7.44328934 46.69849823 7.46079742 47.90480896 7.47883606 49.14767456 C7.47591049 50.26538239 7.47298492 51.38309021 7.4699707 52.53466797 C7.47583694 53.51982391 7.48170319 54.50497986 7.48774719 55.51998901 C7 58 7 58 5.11125183 59.8611145 C3 61 3 61 0.75 60.6875 C0.1725 60.460625 -0.405 60.23375 -1 60 C0.98 59.34 2.96 58.68 5 58 C5 39.52 5 21.04 5 2 C4.01 2.33 3.02 2.66 2 3 C1.34 2.01 0.68 1.02 0 0 Z " fill="#C89C57" transform="translate(169,73)"/>
<path d="M0 0 C1.49121778 2.98243555 1.13001472 6.02615752 1.11352539 9.29541016 C1.11367142 10.04672714 1.11381744 10.79804413 1.1139679 11.5721283 C1.11326996 14.0611355 1.10548314 16.55006833 1.09765625 19.0390625 C1.09579165 20.76256265 1.09436794 22.48606334 1.09336853 24.20956421 C1.08954669 28.75025897 1.07971922 33.29092185 1.06866455 37.831604 C1.05844329 42.46325245 1.05386937 47.09490603 1.04882812 51.7265625 C1.03809667 60.81772236 1.02102422 69.90885853 1 79 C0.67 79 0.34 79 0 79 C-0.33 54.25 -0.66 29.5 -1 4 C-2.32 3.67 -3.64 3.34 -5 3 C-5 2.34 -5 1.68 -5 1 C-3 0 -3 0 0 0 Z " fill="#C9A45C" transform="translate(236,108)"/>
<path d="M0 0 C7.34965547 2.4187755 14.6496812 4.96364431 21.9375 7.5625 C23.6400293 8.16094727 23.6400293 8.16094727 25.37695312 8.77148438 C26.99827148 9.3505957 26.99827148 9.3505957 28.65234375 9.94140625 C29.63195068 10.28888916 30.61155762 10.63637207 31.62084961 10.99438477 C34 12 34 12 36 14 C32.7 14 29.4 14 26 14 C26 13.34 26 12.68 26 12 C23.36 12.33 20.72 12.66 18 13 C17.67 12.01 17.34 11.02 17 10 C11.58976413 6.54665795 5.75696559 3.82635735 0 1 C0 0.67 0 0.34 0 0 Z " fill="#CCA459" transform="translate(247,46)"/>
<path d="M0 0 C-25.49253731 11.8358209 -25.49253731 11.8358209 -31 10 C-31 9.34 -31 8.68 -31 8 C-27.59648662 5.96780512 -24.6767073 5.63108961 -20.75 5.375 C-19.67234375 5.30023438 -18.5946875 5.22546875 -17.484375 5.1484375 C-16.25460938 5.07496094 -16.25460938 5.07496094 -15 5 C-15 3.68 -15 2.36 -15 1 C-12.77888677 -0.11055662 -11.0853776 -0.33890958 -8.625 -0.625 C-7.85414063 -0.72039062 -7.08328125 -0.81578125 -6.2890625 -0.9140625 C-3.97179747 -1.0010588 -2.20658162 -0.67507292 0 0 Z " fill="#CDA256" transform="translate(166,149)"/>
<path d="M0 0 C2.125 0.9375 2.125 0.9375 4 2 C4 2.66 4 3.32 4 4 C1.90049414 4.86555948 -0.2047907 5.71711277 -2.3125 6.5625 C-4.07013672 7.27599609 -4.07013672 7.27599609 -5.86328125 8.00390625 C-9 9 -9 9 -12 8 C-9 6 -9 6 -5 6 C-5.33 5.01 -5.66 4.02 -6 3 C-4 2 -2 1 0 0 Z " fill="#CCA150" transform="translate(179,139)"/>
<path d="M0 0 C1.98 0 3.96 0 6 0 C2.39259035 3.13769485 -1.57138372 4.52845174 -6 6.125 C-6.7115625 6.38925781 -7.423125 6.65351562 -8.15625 6.92578125 C-11.41036427 8.12178967 -14.62781668 9.20078509 -18 10 C-18 9.34 -18 8.68 -18 8 C-17.360625 7.71125 -16.72125 7.4225 -16.0625 7.125 C-13.84793921 6.17176549 -13.84793921 6.17176549 -13 4 C-10.03 4 -7.06 4 -4 4 C-4 3.34 -4 2.68 -4 2 C-2.68 2 -1.36 2 0 2 C0 1.34 0 0.68 0 0 Z " fill="#CBA555" transform="translate(149,82)"/>
<path d="M0 0 C2.79422603 0.95135319 5.58524589 1.91069593 8.375 2.875 C9.1690625 3.14441406 9.963125 3.41382813 10.78125 3.69140625 C11.92207031 4.08779297 11.92207031 4.08779297 13.0859375 4.4921875 C13.7876709 4.73308105 14.4894043 4.97397461 15.21240234 5.22216797 C17 6 17 6 19 8 C15.7 8 12.4 8 9 8 C9 7.34 9 6.68 9 6 C4.545 4.02 4.545 4.02 0 2 C0 1.34 0 0.68 0 0 Z " fill="#CFAB66" transform="translate(264,52)"/>
<path d="M0 0 C8.25 0 16.5 0 25 0 C25 0.33 25 0.66 25 1 C17.08 1 9.16 1 1 1 C1.33 2.65 1.66 4.3 2 6 C1.01 6 0.02 6 -1 6 C-0.67 4.02 -0.34 2.04 0 0 Z " fill="#C9A55D" transform="translate(57,237)"/>
<path d="M0 0 C0 0.66 0 1.32 0 2 C-0.99 2 -1.98 2 -3 2 C-3 2.66 -3 3.32 -3 4 C-5.96178773 5.67110042 -8.37071192 6.32682752 -11.75 6.625 C-12.54921875 6.69976562 -13.3484375 6.77453125 -14.171875 6.8515625 C-15.07679688 6.92503906 -15.07679688 6.92503906 -16 7 C-13.53859635 4.53859635 -11.21543707 3.69673014 -8 2.375 C-6.9275 1.92898437 -5.855 1.48296875 -4.75 1.0234375 C-2 0 -2 0 0 0 Z " fill="#C59D59" transform="translate(172,60)"/>
<path d="M0 0 C-3.00950123 1.61725534 -5.97103608 2.67582623 -9.25 3.625 C-10.58804688 4.01558594 -10.58804688 4.01558594 -11.953125 4.4140625 C-12.62859375 4.60742188 -13.3040625 4.80078125 -14 5 C-14 4.01 -14 3.02 -14 2 C-9.126739 0.4087311 -5.19209404 -0.21192221 0 0 Z " fill="#CBAF6E" transform="translate(121,166)"/>
<path d="M0 0 C-1 3 -1 3 -3.0625 4.1875 C-3.701875 4.455625 -4.34125 4.72375 -5 5 C-5 4.34 -5 3.68 -5 3 C-7.47266765 3.34444881 -7.47266765 3.34444881 -10 4 C-10.33 4.66 -10.66 5.32 -11 6 C-11.66 5.34 -12.32 4.68 -13 4 C-11.2097939 3.32942113 -9.41778511 2.6636531 -7.625 2 C-6.62726563 1.62875 -5.62953125 1.2575 -4.6015625 0.875 C-2 0 -2 0 0 0 Z " fill="#CEA158" transform="translate(110,154)"/>
<path d="M0 0 C-0.33 0.66 -0.66 1.32 -1 2 C-2.32 2 -3.64 2 -5 2 C-5 2.66 -5 3.32 -5 4 C-6.98 4 -8.96 4 -11 4 C-7.64191281 0.32209498 -4.88401581 -0.13200043 0 0 Z " fill="#CEA250" transform="translate(125,162)"/>
<path d="M0 0 C3.625 0.375 3.625 0.375 7 1 C4.94766315 3.2477975 3.99332739 4.0022242 1 5 C0.01 4.67 -0.98 4.34 -2 4 C-2 2 -2 2 0 0 Z " fill="#CFA455" transform="translate(137,155)"/>
<path d="M0 0 C-2.93828597 2.50298434 -5.17902761 3.46930939 -9 4 C-9 2.68 -9 1.36 -9 0 C-5.93109813 -1.53445094 -3.29905734 -0.54984289 0 0 Z " fill="#CDA752" transform="translate(170,76)"/>
<path d="M0 0 C1.98 0 3.96 0 6 0 C6 0.66 6 1.32 6 2 C5.38125 2.061875 4.7625 2.12375 4.125 2.1875 C1.72238859 2.828919 1.72238859 2.828919 0.75 5.5625 C0.5025 6.366875 0.255 7.17125 0 8 C-0.33 8 -0.66 8 -1 8 C-1.125 2.25 -1.125 2.25 0 0 Z " fill="#CDA663" transform="translate(98,171)"/>
<path d="M0 0 C6.75 0.875 6.75 0.875 9 2 C9 2.99 9 3.98 9 5 C5.818202 3.93940067 2.9826906 2.52448631 0 1 C0 0.67 0 0.34 0 0 Z " fill="#D79B60" transform="translate(237,43)"/>
<path d="M0 0 C0.33 1.98 0.66 3.96 1 6 C0.34 5.34 -0.32 4.68 -1 4 C-3.06874034 3.3574765 -3.06874034 3.3574765 -5 3 C-5 2.34 -5 1.68 -5 1 C-3 0 -3 0 0 0 Z " fill="#C7AC69" transform="translate(236,108)"/>
<path d="M0 0 C1.98 0 3.96 0 6 0 C2.79663178 2.83374881 0.21912747 3.5205537 -4 4 C-4 3.34 -4 2.68 -4 2 C-2.68 2 -1.36 2 0 2 C0 1.34 0 0.68 0 0 Z " fill="#C29D59" transform="translate(149,82)"/>
</svg>
